<?xml version="1.0" encoding="UTF-8" standalone="no"?> <!-- Created with Vectornator for iOS (http://vectornator.io/) --><!DOCTYPE svg PUBLIC "-//W3C//DTD SVG 1.1//EN" "http://www.w3.org/Graphics/SVG/1.1/DTD/svg11.dtd">
<svg height="100%" style="fill-rule:nonzero;clip-rule:evenodd;stroke-linecap:round;stroke-linejoin:round;" xmlns:xlink="http://www.w3.org/1999/xlink" xmlns="http://www.w3.org/2000/svg" xml:space="preserve" width="100%" xmlns:vectornator="http://vectornator.io" version="1.1" viewBox="0 0 254 54">
<metadata>
<vectornator:setting key="DimensionsVisible" value="1"/>
<vectornator:setting key="PencilOnly" value="0"/>
<vectornator:setting key="SnapToPoints" value="0"/>
<vectornator:setting key="GuidesVisible" value="1"/>
<vectornator:setting key="OutlineMode" value="0"/>
<vectornator:setting key="CMYKEnabledKey" value="0"/>
<vectornator:setting key="RulersVisible" value="1"/>
<vectornator:setting key="SnapToEdges" value="0"/>
<vectornator:setting key="DisplayWhiteBackground" value="0"/>
<vectornator:setting key="doHistoryDisabled" value="0"/>
<vectornator:setting key="SnapToGuides" value="1"/>
<vectornator:setting key="TimeLapseWatermarkDisabled" value="0"/>
<vectornator:setting key="DynamicGuides" value="0"/>
<vectornator:setting key="SnapToGrid" value="0"/>
<vectornator:setting key="IsolateActiveLayer" value="0"/>
<vectornator:setting key="Units" value="Points"/>
</metadata>
<defs/>
<g id="Untitled" vectornator:layerName="Untitled">
<path d="M4+0L250+0C252.209+0+254+1.79086+254+4L254+50C254+52.2091+252.209+54+250+54L4+54C1.79086+54+3.33571e-07+52.2091+0+50L0+4C-4.76837e-07+1.79086+1.79086-2.63437e-08+4+0Z" opacity="1" fill="#002239"/>
<path d="M22.3652+20.672L26.0612+20.672C26.7119+20.672+27.2985+20.7307+27.8212+20.848C28.3439+20.9653+28.7919+21.1573+29.1652+21.424C29.5385+21.6907+29.8265+22.032+30.0292+22.448C30.2319+22.864+30.3332+23.3653+30.3332+23.952C30.3332+24.5813+30.2159+25.1093+29.9812+25.536C29.7465+25.9627+29.4265+26.3093+29.0212+26.576C28.6265+26.832+28.1625+27.0187+27.6292+27.136C27.0959+27.2533+26.5305+27.312+25.9332+27.312L24.3812+27.312L24.3812+32L22.3652+32L22.3652+20.672ZM25.7892+25.616C26.1199+25.616+26.4345+25.5947+26.7332+25.552C27.0319+25.4987+27.2985+25.4133+27.5332+25.296C27.7679+25.168+27.9545+24.9973+28.0932+24.784C28.2319+24.5707+28.3012+24.2933+28.3012+23.952C28.3012+23.6213+28.2319+23.3547+28.0932+23.152C27.9545+22.9387+27.7679+22.7733+27.5332+22.656C27.3092+22.5387+27.0479+22.464+26.7492+22.432C26.4612+22.3893+26.1625+22.368+25.8532+22.368L24.3812+22.368L24.3812+25.616L25.7892+25.616ZM30.5399+28.128C30.5399+27.52+30.6466+26.9707+30.8599+26.48C31.0839+25.9787+31.3826+25.552+31.7559+25.2C32.1293+24.848+32.5719+24.576+33.0839+24.384C33.5959+24.192+34.1399+24.096+34.7159+24.096C35.2919+24.096+35.8359+24.192+36.3479+24.384C36.8599+24.576+37.3026+24.848+37.6759+25.2C38.0493+25.552+38.3426+25.9787+38.5559+26.48C38.7799+26.9707+38.8919+27.52+38.8919+28.128C38.8919+28.736+38.7799+29.2907+38.5559+29.792C38.3426+30.2933+38.0493+30.7253+37.6759+31.088C37.3026+31.44+36.8599+31.7173+36.3479+31.92C35.8359+32.1227+35.2919+32.224+34.7159+32.224C34.1399+32.224+33.5959+32.1227+33.0839+31.92C32.5719+31.7173+32.1293+31.44+31.7559+31.088C31.3826+30.7253+31.0839+30.2933+30.8599+29.792C30.6466+29.2907+30.5399+28.736+30.5399+28.128ZM32.4919+28.128C32.4919+28.4267+32.5346+28.7253+32.6199+29.024C32.7159+29.3227+32.8546+29.5893+33.0359+29.824C33.2173+30.0587+33.4466+30.2507+33.7239+30.4C34.0013+30.5493+34.3319+30.624+34.7159+30.624C35.0999+30.624+35.4306+30.5493+35.7079+30.4C35.9853+30.2507+36.2146+30.0587+36.3959+29.824C36.5773+29.5893+36.7106+29.3227+36.7959+29.024C36.8919+28.7253+36.9399+28.4267+36.9399+28.128C36.9399+27.8293+36.8919+27.536+36.7959+27.248C36.7106+26.9493+36.5773+26.6827+36.3959+26.448C36.2146+26.2133+35.9853+26.0267+35.7079+25.888C35.4306+25.7387+35.0999+25.664+34.7159+25.664C34.3319+25.664+34.0013+25.7387+33.7239+25.888C33.4466+26.0267+33.2173+26.2133+33.0359+26.448C32.8546+26.6827+32.7159+26.9493+32.6199+27.248C32.5346+27.536+32.4919+27.8293+32.4919+28.128ZM39.6656+24.32L41.7456+24.32L43.3456+29.824L43.3776+29.824L45.0256+24.32L47.0736+24.32L48.7376+29.824L48.7696+29.824L50.4016+24.32L52.4016+24.32L49.7456+32L47.7936+32L46.0496+26.624L46.0176+26.624L44.2896+32L42.3376+32L39.6656+24.32ZM59.0209+27.392C59.0209+27.1467+58.9836+26.912+58.9089+26.688C58.8449+26.464+58.7383+26.2667+58.5889+26.096C58.4396+25.9253+58.2476+25.792+58.0129+25.696C57.7889+25.5893+57.5223+25.536+57.2129+25.536C56.6369+25.536+56.1463+25.712+55.7409+26.064C55.3463+26.4053+55.1276+26.848+55.0849+27.392L59.0209+27.392ZM60.9409+28.256C60.9409+28.3413+60.9409+28.4267+60.9409+28.512C60.9409+28.5973+60.9356+28.6827+60.9249+28.768L55.0849+28.768C55.1063+29.0453+55.1756+29.3013+55.2929+29.536C55.4209+29.76+55.5863+29.9573+55.7889+30.128C55.9916+30.288+56.2209+30.416+56.4769+30.512C56.7329+30.608+56.9996+30.656+57.2769+30.656C57.7569+30.656+58.1623+30.5707+58.4929+30.4C58.8236+30.2187+59.0956+29.9733+59.3089+29.664L60.5889+30.688C59.8316+31.712+58.7329+32.224+57.2929+32.224C56.6956+32.224+56.1463+32.1333+55.6449+31.952C55.1436+31.76+54.7063+31.4933+54.3329+31.152C53.9703+30.8107+53.6823+30.3947+53.4689+29.904C53.2663+29.4027+53.1649+28.8373+53.1649+28.208C53.1649+27.5893+53.2663+27.0293+53.4689+26.528C53.6823+26.016+53.9703+25.584+54.3329+25.232C54.6956+24.8693+55.1223+24.592+55.6129+24.4C56.1143+24.1973+56.6529+24.096+57.2289+24.096C57.7623+24.096+58.2529+24.1867+58.7009+24.368C59.1596+24.5387+59.5543+24.8+59.8849+25.152C60.2156+25.4933+60.4716+25.9253+60.6529+26.448C60.8449+26.96+60.9409+27.5627+60.9409+28.256ZM62.8004+24.32L64.6404+24.32L64.6404+25.6L64.6724+25.6C64.8858+25.152+65.1844+24.7893+65.5684+24.512C65.9524+24.2347+66.4004+24.096+66.9124+24.096C66.9871+24.096+67.0671+24.1013+67.1524+24.112C67.2378+24.112+67.3124+24.1227+67.3764+24.144L67.3764+25.904C67.2484+25.872+67.1364+25.8507+67.0404+25.84C66.9551+25.8293+66.8698+25.824+66.7844+25.824C66.3471+25.824+65.9951+25.904+65.7284+26.064C65.4618+26.224+65.2538+26.416+65.1044+26.64C64.9551+26.864+64.8538+27.0933+64.8004+27.328C64.7471+27.5627+64.7204+27.7493+64.7204+27.888L64.7204+32L62.8004+32L62.8004+24.32ZM73.7553+27.392C73.7553+27.1467+73.718+26.912+73.6433+26.688C73.5793+26.464+73.4726+26.2667+73.3233+26.096C73.174+25.9253+72.982+25.792+72.7473+25.696C72.5233+25.5893+72.2566+25.536+71.9473+25.536C71.3713+25.536+70.8806+25.712+70.4753+26.064C70.0806+26.4053+69.862+26.848+69.8193+27.392L73.7553+27.392ZM75.6753+28.256C75.6753+28.3413+75.6753+28.4267+75.6753+28.512C75.6753+28.5973+75.67+28.6827+75.6593+28.768L69.8193+28.768C69.8406+29.0453+69.91+29.3013+70.0273+29.536C70.1553+29.76+70.3206+29.9573+70.5233+30.128C70.726+30.288+70.9553+30.416+71.2113+30.512C71.4673+30.608+71.734+30.656+72.0113+30.656C72.4913+30.656+72.8966+30.5707+73.2273+30.4C73.558+30.2187+73.83+29.9733+74.0433+29.664L75.3233+30.688C74.566+31.712+73.4673+32.224+72.0273+32.224C71.43+32.224+70.8806+32.1333+70.3793+31.952C69.878+31.76+69.4406+31.4933+69.0673+31.152C68.7046+30.8107+68.4166+30.3947+68.2033+29.904C68.0006+29.4027+67.8993+28.8373+67.8993+28.208C67.8993+27.5893+68.0006+27.0293+68.2033+26.528C68.4166+26.016+68.7046+25.584+69.0673+25.232C69.43+24.8693+69.8566+24.592+70.3473+24.4C70.8486+24.1973+71.3873+24.096+71.9633+24.096C72.4966+24.096+72.9873+24.1867+73.4353+24.368C73.894+24.5387+74.2886+24.8+74.6193+25.152C74.95+25.4933+75.206+25.9253+75.3873+26.448C75.5793+26.96+75.6753+27.5627+75.6753+28.256ZM85.3428+32L83.5188+32L83.5188+30.848L83.4868+30.848C83.2201+31.296+82.8468+31.6373+82.3668+31.872C81.8975+32.1067+81.3908+32.224+80.8468+32.224C80.2601+32.224+79.7321+32.1173+79.2628+31.904C78.8041+31.68+78.4095+31.3867+78.0788+31.024C77.7588+30.6507+77.5081+30.2187+77.3268+29.728C77.1561+29.2267+77.0708+28.6933+77.0708+28.128C77.0708+27.5627+77.1615+27.0347+77.3428+26.544C77.5241+26.0533+77.7801+25.6267+78.1108+25.264C78.4415+24.9013+78.8361+24.6187+79.2948+24.416C79.7535+24.2027+80.2548+24.096+80.7988+24.096C81.1508+24.096+81.4655+24.1387+81.7428+24.224C82.0201+24.2987+82.2601+24.3947+82.4628+24.512C82.6761+24.6293+82.8575+24.7573+83.0068+24.896C83.1561+25.0347+83.2788+25.168+83.3748+25.296L83.4228+25.296L83.4228+19.904L85.3428+19.904L85.3428+32ZM79.0228+28.128C79.0228+28.4267+79.0655+28.7253+79.1508+29.024C79.2468+29.3227+79.3855+29.5893+79.5668+29.824C79.7481+30.0587+79.9775+30.2507+80.2548+30.4C80.5321+30.5493+80.8575+30.624+81.2308+30.624C81.5828+30.624+81.8975+30.5547+82.1748+30.416C82.4521+30.2667+82.6868+30.0747+82.8788+29.84C83.0815+29.6053+83.2308+29.344+83.3268+29.056C83.4335+28.7573+83.4868+28.4587+83.4868+28.16C83.4868+27.8613+83.4335+27.5627+83.3268+27.264C83.2308+26.9653+83.0815+26.6987+82.8788+26.464C82.6868+26.2293+82.4521+26.0373+82.1748+25.888C81.8975+25.7387+81.5828+25.664+81.2308+25.664C80.8575+25.664+80.5321+25.7387+80.2548+25.888C79.9775+26.0267+79.7481+26.2133+79.5668+26.448C79.3855+26.6827+79.2468+26.9493+79.1508+27.248C79.0655+27.536+79.0228+27.8293+79.0228+28.128ZM93.6274+19.904L93.6274+25.296L93.6754+25.296C93.7714+25.168+93.8941+25.0347+94.0434+24.896C94.1928+24.7573+94.3688+24.6293+94.5714+24.512C94.7848+24.3947+95.0301+24.2987+95.3074+24.224C95.5848+24.1387+95.8994+24.096+96.2514+24.096C96.7954+24.096+97.2968+24.2027+97.7554+24.416C98.2141+24.6187+98.6088+24.9013+98.9394+25.264C99.2701+25.6267+99.5261+26.0533+99.7074+26.544C99.8888+27.0347+99.9794+27.5627+99.9794+28.128C99.9794+28.6933+99.8888+29.2267+99.7074+29.728C99.5368+30.2187+99.2861+30.6507+98.9554+31.024C98.6354+31.3867+98.2408+31.68+97.7714+31.904C97.3128+32.1173+96.7901+32.224+96.2034+32.224C95.6594+32.224+95.1474+32.1067+94.6674+31.872C94.1981+31.6373+93.8301+31.296+93.5634+30.848L93.5314+30.848L93.5314+32L91.7074+32L91.7074+19.904L93.6274+19.904ZM98.0274+28.128C98.0274+27.8293+97.9794+27.536+97.8834+27.248C97.7981+26.9493+97.6648+26.6827+97.4834+26.448C97.3021+26.2133+97.0728+26.0267+96.7954+25.888C96.5181+25.7387+96.1928+25.664+95.8194+25.664C95.4674+25.664+95.1528+25.7387+94.8754+25.888C94.5981+26.0373+94.3581+26.2293+94.1554+26.464C93.9634+26.6987+93.8141+26.9653+93.7074+27.264C93.6114+27.5627+93.5634+27.8613+93.5634+28.16C93.5634+28.4587+93.6114+28.7573+93.7074+29.056C93.8141+29.344+93.9634+29.6053+94.1554+29.84C94.3581+30.0747+94.5981+30.2667+94.8754+30.416C95.1528+30.5547+95.4674+30.624+95.8194+30.624C96.1928+30.624+96.5181+30.5493+96.7954+30.4C97.0728+30.2507+97.3021+30.0587+97.4834+29.824C97.6648+29.5893+97.7981+29.3227+97.8834+29.024C97.9794+28.7253+98.0274+28.4267+98.0274+28.128ZM100.68+24.32L102.808+24.32L104.952+29.904L104.984+29.904L106.888+24.32L108.888+24.32L105.256+33.648C105.117+34+104.968+34.3093+104.808+34.576C104.648+34.8533+104.456+35.0827+104.232+35.264C104.008+35.456+103.741+35.6+103.432+35.696C103.133+35.792+102.77+35.84+102.344+35.84C102.184+35.84+102.018+35.8293+101.848+35.808C101.688+35.7973+101.522+35.7707+101.352+35.728L101.512+34.064C101.64+34.1067+101.762+34.1333+101.88+34.144C102.008+34.1653+102.125+34.176+102.232+34.176C102.434+34.176+102.605+34.1493+102.744+34.096C102.882+34.0533+103+33.9787+103.096+33.872C103.192+33.776+103.277+33.6533+103.352+33.504C103.426+33.3547+103.506+33.1787+103.592+32.976L103.976+32L100.68+24.32Z" opacity="1" fill="#ffffff"/>
<g opacity="1">
<path d="M179.736+24.6011L179.736+27.3901L179.794+27.3901C180.524+25.3541+181.866+24.6001+183.761+24.6001L189.971+24.6001C190.141+24.6001+190.29+24.7121+190.339+24.8741L193.043+33.7861C193.218+34.3561+193.354+35.0291+193.451+35.8061L193.51+35.8061C193.597+35.2361+193.758+34.5721+193.991+33.8161L196.807+24.6011L201.374+24.6011L195.304+40.9071C193.845+44.8291+191.647+46.7901+188.71+46.7901C187.591+46.7901+186.672+46.6621+185.952+46.4061L185.952+42.6911C186.565+43.0551+187.232+43.2361+187.952+43.2361C189.138+43.2361+189.964+42.6711+190.432+41.5411L191.219+39.6691L186.651+28.3291L182.929+28.3291C181.999+28.3291+181.259+28.6481+180.706+29.2851L180.582+29.4371C180.018+30.1771+179.736+31.1821+179.736+32.4541L179.736+39.6321L175.129+39.6321L175.129+24.6011C175.129+24.6011+179.736+24.6011+179.736+24.6011ZM217.304+20.0681L217.304+24.6011L220.7+24.6011L220.7+27.9471L217.304+27.9471L217.304+34.1851C217.304+35.7571+217.929+36.5431+219.179+36.5431C219.671+36.5431+220.178+36.4001+220.699+36.1161L220.699+39.5641C220.011+39.9271+218.972+40.1091+217.584+40.1091C214.296+40.1091+212.653+38.4051+212.653+34.9961L212.653+27.9461L210.949+27.9461L210.949+27.9491L207.038+27.9491C206.73+27.9491+206.44+27.9761+206.168+28.0311C205.895+28.0851+205.655+28.1651+205.446+28.2691C205.238+28.3731+205.074+28.5071+204.956+28.6711C204.836+28.8351+204.771+28.9911+204.771+29.2011C204.771+29.4781+204.866+29.5971+205.045+29.7951C205.223+29.9941+205.456+30.1651+205.744+30.3091C206.031+30.4531+206.351+30.5821+206.704+30.6961C207.055+30.8101+207.404+30.9261+207.752+31.0461C208.376+31.2641+208.942+31.5021+209.447+31.7601C209.953+32.0181+210.387+32.3201+210.749+32.6681C211.111+33.0151+211.389+33.4221+211.582+33.8881C211.775+34.3551+211.872+34.9101+211.872+35.5551C211.872+36.4581+211.676+37.2301+211.284+37.8701C210.893+38.5101+210.372+39.0301+209.723+39.4331C209.073+39.8351+208.324+40.1271+207.477+40.3111C206.629+40.4941+205.749+40.5861+204.837+40.5861C203.161+40.5861+201.609+40.3281+200.181+39.8121L200.181+36.0021C200.954+36.4681+201.725+36.8161+202.494+37.0441C203.262+37.2721+203.989+37.3861+204.673+37.3861C205.506+37.3861+206.163+37.2721+206.643+37.0441C207.125+36.8161+207.365+36.4681+207.365+36.0021C207.365+35.7041+207.255+35.4561+207.038+35.2581C206.82+35.0591+206.539+34.8861+206.198+34.7371C205.855+34.5881+205.481+34.4541+205.074+34.3351C204.668+34.2151+204.276+34.0821+203.899+33.9331C203.295+33.7051+202.762+33.4591+202.3+33.1961C201.84+32.9331+201.453+32.6281+201.14+32.2811C200.828+31.9341+200.59+31.5311+200.426+31.0751C200.263+30.6191+200.181+30.0781+200.181+29.4531C200.181+28.6001+200.367+27.8651+200.739+27.2501C201.111+26.6351+201.606+26.1311+202.226+25.7401C202.846+25.3471+203.555+25.0601+204.353+24.8761C205.151+24.6931+205.982+24.6011+206.844+24.6011L212.653+24.6011L212.653+21.3941L217.303+20.0681L217.304+20.0681ZM240.027+16.9661L240.027+35.5181C240.027+35.8521+240.207+36.1341+240.491+36.1341C240.981+36.1341+241.213+36.1341+241.805+36.0571L241.934+36.0571L241.934+39.8771C241.316+40.0571+240.749+40.1081+239.95+40.1081C236.91+40.1081+235.492+38.6981+235.492+36.0311L235.492+16.9661C235.492+16.9661+240.027+16.9661+240.027+16.9661ZM228.357+24.1241C232.544+24.1241+234.682+26.1671+234.773+30.2551L234.776+30.5311L234.776+39.5041L230.395+39.5041L230.395+37.3481L230.336+37.3481L230.196+37.5721C229.193+39.1041+227.75+39.8691+225.866+39.8691C224.411+39.8691+223.266+39.4571+222.43+38.6311C221.594+37.8051+221.177+36.7031+221.177+35.3241C221.177+32.4941+222.804+30.8271+226.058+30.3221L226.35+30.2811L230.424+29.7381L230.42+29.5521C230.354+28.0341+229.466+27.2751+227.757+27.2751C226.088+27.2751+224.496+27.7391+222.98+28.6671L222.657+28.8731L222.657+25.3831L222.881+25.2741C223.501+24.9871+224.308+24.7301+225.302+24.5041C226.421+24.2501+227.439+24.1231+228.358+24.1231L228.357+24.1241ZM164.012+11.4781L164.012+31.5681L164.07+31.5681L168.238+25.1111L169.846+22.9171L175.34+22.9171L173.67+25.1191L168.656+31.6841L174.413+39.6321L168.862+39.6321L164.072+32.1971L164.012+32.1971L164.012+39.6321L159.382+39.6321L159.382+12.6721C159.382+12.6721+164.012+11.4781+164.012+11.4781ZM230.424+32.3931L227.698+32.7451L227.488+32.7761C226.124+33.0061+225.441+33.6751+225.441+34.7831C225.441+35.3111+225.624+35.7431+225.991+36.0801C226.357+36.4181+226.853+36.5861+227.478+36.5861C228.348+36.5861+229.056+36.2861+229.603+35.6851C230.101+35.1381+230.372+34.4601+230.417+33.6511L230.424+33.4051C230.424+33.4051+230.424+32.3931+230.424+32.3931Z" opacity="1" fill="#ffffff"/>
<path d="M135.823+30.1951C136.189+30.1881+136.491+30.4791+136.498+30.8451L136.729+43.3951C136.735+43.7161+136.511+43.9951+136.197+44.0581L131.141+45.0731C131.023+45.0971+130.901+45.0881+130.789+45.0481C130.444+44.9251+130.264+44.5461+130.386+44.2011L135.211+30.6361C135.304+30.3761+135.547+30.2001+135.823+30.1951ZM138.303+30.9211C138.572+30.6731+138.991+30.6911+139.239+30.9601L147.115+39.5231C147.199+39.6151+147.255+39.7291+147.279+39.8521C147.345+40.2121+147.106+40.5571+146.747+40.6231L139.056+42.0361C139.02+42.0431+138.985+42.0461+138.949+42.0471C138.583+42.0541+138.28+41.7631+138.274+41.3971L138.088+31.4211C138.085+31.2311+138.163+31.0491+138.302+30.9211L138.303+30.9211ZM134.036+29.4761C134.069+29.6041+134.064+29.7401+134.019+29.8651L130.239+40.5451C130.116+40.8891+129.738+41.0701+129.393+40.9481C129.303+40.9161+129.22+40.8651+129.152+40.7981L121.295+33.1561C121.032+32.9001+121.027+32.4811+121.282+32.2191C121.366+32.1321+121.472+32.0701+121.589+32.0391L133.227+29.0021C133.582+28.9101+133.944+29.1221+134.036+29.4761ZM140.545+27.8661L152.475+30.3241C152.816+30.3941+153.045+30.7171+152.997+31.0641L151.725+40.3101C151.675+40.6731+151.341+40.9261+150.978+40.8761C150.825+40.8551+150.683+40.7811+150.578+40.6661L139.922+28.9611C139.676+28.6911+139.695+28.2711+139.966+28.0251C140.122+27.8821+140.338+27.8231+140.546+27.8651L140.545+27.8661ZM117.412+20.0221C117.542+19.6801+117.926+19.5091+118.268+19.6391L134.568+25.8721C134.768+25.9491+134.92+26.1171+134.973+26.3241C135.066+26.6791+134.853+27.0401+134.499+27.1321L117.334+31.5921C117.262+31.6121+117.188+31.6181+117.114+31.6121C116.749+31.5821+116.477+31.2621+116.507+30.8981L117.37+20.2051C117.375+20.1421+117.39+20.0801+117.412+20.0221ZM148.448+14.5571C148.569+14.6541+148.653+14.7911+148.683+14.9441L151.149+27.2651C151.221+27.6241+150.989+27.9731+150.629+28.0451C150.543+28.0621+150.453+28.0621+150.366+28.0451L139.775+25.8701C139.416+25.7961+139.185+25.4461+139.259+25.0881C139.28+24.9851+139.325+24.8881+139.391+24.8071L147.516+14.6601C147.746+14.3741+148.162+14.3281+148.448+14.5571ZM136.541+12.4791C136.6+12.5801+136.631+12.6951+136.631+12.8121L136.631+24.0231C136.631+24.3891+136.334+24.6861+135.968+24.6861C135.887+24.6861+135.806+24.6711+135.731+24.6421L124.104+20.1861C123.763+20.0561+123.592+19.6721+123.723+19.3301C123.777+19.1901+123.878+19.0701+124.009+18.9951L135.635+12.2381C135.951+12.0541+136.357+12.1621+136.541+12.4781L136.541+12.4791ZM138.094+9.33215C138.217+8.98715+138.596+8.80715+138.94+8.93015L146.72+11.6961C146.79+11.7211+146.855+11.7571+146.913+11.8031C147.198+12.0331+147.244+12.4491+147.016+12.7351L139.236+22.4431C139.11+22.6001+138.92+22.6921+138.719+22.6921C138.353+22.6921+138.056+22.3951+138.056+22.0291L138.056+9.55415C138.056+9.47915+138.069+9.40415+138.094+9.33215Z" opacity="1" fill="#1de9b6"/>
</g>
</g>
</svg>
