<?xml version="1.0" encoding="UTF-8" standalone="no"?> <!-- Created with Vectornator for iOS (http://vectornator.io/) --><!DOCTYPE svg PUBLIC "-//W3C//DTD SVG 1.1//EN" "http://www.w3.org/Graphics/SVG/1.1/DTD/svg11.dtd">
<svg height="100%" style="fill-rule:nonzero;clip-rule:evenodd;stroke-linecap:round;stroke-linejoin:round;" xmlns:xlink="http://www.w3.org/1999/xlink" xmlns="http://www.w3.org/2000/svg" xml:space="preserve" width="100%" xmlns:vectornator="http://vectornator.io" version="1.1" viewBox="0 0 254 54">
<metadata>
<vectornator:setting key="DimensionsVisible" value="1"/>
<vectornator:setting key="PencilOnly" value="0"/>
<vectornator:setting key="SnapToPoints" value="0"/>
<vectornator:setting key="GuidesVisible" value="1"/>
<vectornator:setting key="OutlineMode" value="0"/>
<vectornator:setting key="CMYKEnabledKey" value="0"/>
<vectornator:setting key="SnapToEdges" value="0"/>
<vectornator:setting key="RulersVisible" value="1"/>
<vectornator:setting key="DisplayWhiteBackground" value="0"/>
<vectornator:setting key="doHistoryDisabled" value="0"/>
<vectornator:setting key="SnapToGuides" value="1"/>
<vectornator:setting key="TimeLapseWatermarkDisabled" value="0"/>
<vectornator:setting key="Units" value="Points"/>
<vectornator:setting key="IsolateActiveLayer" value="0"/>
<vectornator:setting key="SnapToGrid" value="0"/>
<vectornator:setting key="DynamicGuides" value="0"/>
</metadata>
<defs/>
<g id="Untitled" vectornator:layerName="Untitled">
<path d="M4+0L250+0C252.209+0+254+1.79086+254+4L254+50C254+52.2091+252.209+54+250+54L4+54C1.79086+54+3.33571e-07+52.2091+0+50L0+4C-4.76837e-07+1.79086+1.79086-2.63437e-08+4+0Z" opacity="1" fill="#f0f5f9"/>
<path d="M22.3652+20.672L26.0612+20.672C26.7119+20.672+27.2985+20.7307+27.8212+20.848C28.3439+20.9653+28.7919+21.1573+29.1652+21.424C29.5385+21.6907+29.8265+22.032+30.0292+22.448C30.2319+22.864+30.3332+23.3653+30.3332+23.952C30.3332+24.5813+30.2159+25.1093+29.9812+25.536C29.7465+25.9627+29.4265+26.3093+29.0212+26.576C28.6265+26.832+28.1625+27.0187+27.6292+27.136C27.0959+27.2533+26.5305+27.312+25.9332+27.312L24.3812+27.312L24.3812+32L22.3652+32L22.3652+20.672ZM25.7892+25.616C26.1199+25.616+26.4345+25.5947+26.7332+25.552C27.0319+25.4987+27.2985+25.4133+27.5332+25.296C27.7679+25.168+27.9545+24.9973+28.0932+24.784C28.2319+24.5707+28.3012+24.2933+28.3012+23.952C28.3012+23.6213+28.2319+23.3547+28.0932+23.152C27.9545+22.9387+27.7679+22.7733+27.5332+22.656C27.3092+22.5387+27.0479+22.464+26.7492+22.432C26.4612+22.3893+26.1625+22.368+25.8532+22.368L24.3812+22.368L24.3812+25.616L25.7892+25.616ZM30.5399+28.128C30.5399+27.52+30.6466+26.9707+30.8599+26.48C31.0839+25.9787+31.3826+25.552+31.7559+25.2C32.1293+24.848+32.5719+24.576+33.0839+24.384C33.5959+24.192+34.1399+24.096+34.7159+24.096C35.2919+24.096+35.8359+24.192+36.3479+24.384C36.8599+24.576+37.3026+24.848+37.6759+25.2C38.0493+25.552+38.3426+25.9787+38.5559+26.48C38.7799+26.9707+38.8919+27.52+38.8919+28.128C38.8919+28.736+38.7799+29.2907+38.5559+29.792C38.3426+30.2933+38.0493+30.7253+37.6759+31.088C37.3026+31.44+36.8599+31.7173+36.3479+31.92C35.8359+32.1227+35.2919+32.224+34.7159+32.224C34.1399+32.224+33.5959+32.1227+33.0839+31.92C32.5719+31.7173+32.1293+31.44+31.7559+31.088C31.3826+30.7253+31.0839+30.2933+30.8599+29.792C30.6466+29.2907+30.5399+28.736+30.5399+28.128ZM32.4919+28.128C32.4919+28.4267+32.5346+28.7253+32.6199+29.024C32.7159+29.3227+32.8546+29.5893+33.0359+29.824C33.2173+30.0587+33.4466+30.2507+33.7239+30.4C34.0013+30.5493+34.3319+30.624+34.7159+30.624C35.0999+30.624+35.4306+30.5493+35.7079+30.4C35.9853+30.2507+36.2146+30.0587+36.3959+29.824C36.5773+29.5893+36.7106+29.3227+36.7959+29.024C36.8919+28.7253+36.9399+28.4267+36.9399+28.128C36.9399+27.8293+36.8919+27.536+36.7959+27.248C36.7106+26.9493+36.5773+26.6827+36.3959+26.448C36.2146+26.2133+35.9853+26.0267+35.7079+25.888C35.4306+25.7387+35.0999+25.664+34.7159+25.664C34.3319+25.664+34.0013+25.7387+33.7239+25.888C33.4466+26.0267+33.2173+26.2133+33.0359+26.448C32.8546+26.6827+32.7159+26.9493+32.6199+27.248C32.5346+27.536+32.4919+27.8293+32.4919+28.128ZM39.6656+24.32L41.7456+24.32L43.3456+29.824L43.3776+29.824L45.0256+24.32L47.0736+24.32L48.7376+29.824L48.7696+29.824L50.4016+24.32L52.4016+24.32L49.7456+32L47.7936+32L46.0496+26.624L46.0176+26.624L44.2896+32L42.3376+32L39.6656+24.32ZM59.0209+27.392C59.0209+27.1467+58.9836+26.912+58.9089+26.688C58.8449+26.464+58.7383+26.2667+58.5889+26.096C58.4396+25.9253+58.2476+25.792+58.0129+25.696C57.7889+25.5893+57.5223+25.536+57.2129+25.536C56.6369+25.536+56.1463+25.712+55.7409+26.064C55.3463+26.4053+55.1276+26.848+55.0849+27.392L59.0209+27.392ZM60.9409+28.256C60.9409+28.3413+60.9409+28.4267+60.9409+28.512C60.9409+28.5973+60.9356+28.6827+60.9249+28.768L55.0849+28.768C55.1063+29.0453+55.1756+29.3013+55.2929+29.536C55.4209+29.76+55.5863+29.9573+55.7889+30.128C55.9916+30.288+56.2209+30.416+56.4769+30.512C56.7329+30.608+56.9996+30.656+57.2769+30.656C57.7569+30.656+58.1623+30.5707+58.4929+30.4C58.8236+30.2187+59.0956+29.9733+59.3089+29.664L60.5889+30.688C59.8316+31.712+58.7329+32.224+57.2929+32.224C56.6956+32.224+56.1463+32.1333+55.6449+31.952C55.1436+31.76+54.7063+31.4933+54.3329+31.152C53.9703+30.8107+53.6823+30.3947+53.4689+29.904C53.2663+29.4027+53.1649+28.8373+53.1649+28.208C53.1649+27.5893+53.2663+27.0293+53.4689+26.528C53.6823+26.016+53.9703+25.584+54.3329+25.232C54.6956+24.8693+55.1223+24.592+55.6129+24.4C56.1143+24.1973+56.6529+24.096+57.2289+24.096C57.7623+24.096+58.2529+24.1867+58.7009+24.368C59.1596+24.5387+59.5543+24.8+59.8849+25.152C60.2156+25.4933+60.4716+25.9253+60.6529+26.448C60.8449+26.96+60.9409+27.5627+60.9409+28.256ZM62.8004+24.32L64.6404+24.32L64.6404+25.6L64.6724+25.6C64.8858+25.152+65.1844+24.7893+65.5684+24.512C65.9524+24.2347+66.4004+24.096+66.9124+24.096C66.9871+24.096+67.0671+24.1013+67.1524+24.112C67.2378+24.112+67.3124+24.1227+67.3764+24.144L67.3764+25.904C67.2484+25.872+67.1364+25.8507+67.0404+25.84C66.9551+25.8293+66.8698+25.824+66.7844+25.824C66.3471+25.824+65.9951+25.904+65.7284+26.064C65.4618+26.224+65.2538+26.416+65.1044+26.64C64.9551+26.864+64.8538+27.0933+64.8004+27.328C64.7471+27.5627+64.7204+27.7493+64.7204+27.888L64.7204+32L62.8004+32L62.8004+24.32ZM73.7553+27.392C73.7553+27.1467+73.718+26.912+73.6433+26.688C73.5793+26.464+73.4726+26.2667+73.3233+26.096C73.174+25.9253+72.982+25.792+72.7473+25.696C72.5233+25.5893+72.2566+25.536+71.9473+25.536C71.3713+25.536+70.8806+25.712+70.4753+26.064C70.0806+26.4053+69.862+26.848+69.8193+27.392L73.7553+27.392ZM75.6753+28.256C75.6753+28.3413+75.6753+28.4267+75.6753+28.512C75.6753+28.5973+75.67+28.6827+75.6593+28.768L69.8193+28.768C69.8406+29.0453+69.91+29.3013+70.0273+29.536C70.1553+29.76+70.3206+29.9573+70.5233+30.128C70.726+30.288+70.9553+30.416+71.2113+30.512C71.4673+30.608+71.734+30.656+72.0113+30.656C72.4913+30.656+72.8966+30.5707+73.2273+30.4C73.558+30.2187+73.83+29.9733+74.0433+29.664L75.3233+30.688C74.566+31.712+73.4673+32.224+72.0273+32.224C71.43+32.224+70.8806+32.1333+70.3793+31.952C69.878+31.76+69.4406+31.4933+69.0673+31.152C68.7046+30.8107+68.4166+30.3947+68.2033+29.904C68.0006+29.4027+67.8993+28.8373+67.8993+28.208C67.8993+27.5893+68.0006+27.0293+68.2033+26.528C68.4166+26.016+68.7046+25.584+69.0673+25.232C69.43+24.8693+69.8566+24.592+70.3473+24.4C70.8486+24.1973+71.3873+24.096+71.9633+24.096C72.4966+24.096+72.9873+24.1867+73.4353+24.368C73.894+24.5387+74.2886+24.8+74.6193+25.152C74.95+25.4933+75.206+25.9253+75.3873+26.448C75.5793+26.96+75.6753+27.5627+75.6753+28.256ZM85.3428+32L83.5188+32L83.5188+30.848L83.4868+30.848C83.2201+31.296+82.8468+31.6373+82.3668+31.872C81.8975+32.1067+81.3908+32.224+80.8468+32.224C80.2601+32.224+79.7321+32.1173+79.2628+31.904C78.8041+31.68+78.4095+31.3867+78.0788+31.024C77.7588+30.6507+77.5081+30.2187+77.3268+29.728C77.1561+29.2267+77.0708+28.6933+77.0708+28.128C77.0708+27.5627+77.1615+27.0347+77.3428+26.544C77.5241+26.0533+77.7801+25.6267+78.1108+25.264C78.4415+24.9013+78.8361+24.6187+79.2948+24.416C79.7535+24.2027+80.2548+24.096+80.7988+24.096C81.1508+24.096+81.4655+24.1387+81.7428+24.224C82.0201+24.2987+82.2601+24.3947+82.4628+24.512C82.6761+24.6293+82.8575+24.7573+83.0068+24.896C83.1561+25.0347+83.2788+25.168+83.3748+25.296L83.4228+25.296L83.4228+19.904L85.3428+19.904L85.3428+32ZM79.0228+28.128C79.0228+28.4267+79.0655+28.7253+79.1508+29.024C79.2468+29.3227+79.3855+29.5893+79.5668+29.824C79.7481+30.0587+79.9775+30.2507+80.2548+30.4C80.5321+30.5493+80.8575+30.624+81.2308+30.624C81.5828+30.624+81.8975+30.5547+82.1748+30.416C82.4521+30.2667+82.6868+30.0747+82.8788+29.84C83.0815+29.6053+83.2308+29.344+83.3268+29.056C83.4335+28.7573+83.4868+28.4587+83.4868+28.16C83.4868+27.8613+83.4335+27.5627+83.3268+27.264C83.2308+26.9653+83.0815+26.6987+82.8788+26.464C82.6868+26.2293+82.4521+26.0373+82.1748+25.888C81.8975+25.7387+81.5828+25.664+81.2308+25.664C80.8575+25.664+80.5321+25.7387+80.2548+25.888C79.9775+26.0267+79.7481+26.2133+79.5668+26.448C79.3855+26.6827+79.2468+26.9493+79.1508+27.248C79.0655+27.536+79.0228+27.8293+79.0228+28.128ZM93.6274+19.904L93.6274+25.296L93.6754+25.296C93.7714+25.168+93.8941+25.0347+94.0434+24.896C94.1928+24.7573+94.3688+24.6293+94.5714+24.512C94.7848+24.3947+95.0301+24.2987+95.3074+24.224C95.5848+24.1387+95.8994+24.096+96.2514+24.096C96.7954+24.096+97.2968+24.2027+97.7554+24.416C98.2141+24.6187+98.6088+24.9013+98.9394+25.264C99.2701+25.6267+99.5261+26.0533+99.7074+26.544C99.8888+27.0347+99.9794+27.5627+99.9794+28.128C99.9794+28.6933+99.8888+29.2267+99.7074+29.728C99.5368+30.2187+99.2861+30.6507+98.9554+31.024C98.6354+31.3867+98.2408+31.68+97.7714+31.904C97.3128+32.1173+96.7901+32.224+96.2034+32.224C95.6594+32.224+95.1474+32.1067+94.6674+31.872C94.1981+31.6373+93.8301+31.296+93.5634+30.848L93.5314+30.848L93.5314+32L91.7074+32L91.7074+19.904L93.6274+19.904ZM98.0274+28.128C98.0274+27.8293+97.9794+27.536+97.8834+27.248C97.7981+26.9493+97.6648+26.6827+97.4834+26.448C97.3021+26.2133+97.0728+26.0267+96.7954+25.888C96.5181+25.7387+96.1928+25.664+95.8194+25.664C95.4674+25.664+95.1528+25.7387+94.8754+25.888C94.5981+26.0373+94.3581+26.2293+94.1554+26.464C93.9634+26.6987+93.8141+26.9653+93.7074+27.264C93.6114+27.5627+93.5634+27.8613+93.5634+28.16C93.5634+28.4587+93.6114+28.7573+93.7074+29.056C93.8141+29.344+93.9634+29.6053+94.1554+29.84C94.3581+30.0747+94.5981+30.2667+94.8754+30.416C95.1528+30.5547+95.4674+30.624+95.8194+30.624C96.1928+30.624+96.5181+30.5493+96.7954+30.4C97.0728+30.2507+97.3021+30.0587+97.4834+29.824C97.6648+29.5893+97.7981+29.3227+97.8834+29.024C97.9794+28.7253+98.0274+28.4267+98.0274+28.128ZM100.68+24.32L102.808+24.32L104.952+29.904L104.984+29.904L106.888+24.32L108.888+24.32L105.256+33.648C105.117+34+104.968+34.3093+104.808+34.576C104.648+34.8533+104.456+35.0827+104.232+35.264C104.008+35.456+103.741+35.6+103.432+35.696C103.133+35.792+102.77+35.84+102.344+35.84C102.184+35.84+102.018+35.8293+101.848+35.808C101.688+35.7973+101.522+35.7707+101.352+35.728L101.512+34.064C101.64+34.1067+101.762+34.1333+101.88+34.144C102.008+34.1653+102.125+34.176+102.232+34.176C102.434+34.176+102.605+34.1493+102.744+34.096C102.882+34.0533+103+33.9787+103.096+33.872C103.192+33.776+103.277+33.6533+103.352+33.504C103.426+33.3547+103.506+33.1787+103.592+32.976L103.976+32L100.68+24.32Z" opacity="1" fill="#002239"/>
<g opacity="1">
<path d="M178.064+23.6277L178.064+26.4167L178.122+26.4167C178.852+24.3807+180.194+23.6267+182.089+23.6267L188.299+23.6267C188.469+23.6267+188.618+23.7387+188.667+23.9007L191.371+32.8127C191.546+33.3827+191.682+34.0557+191.779+34.8327L191.838+34.8327C191.925+34.2627+192.086+33.5987+192.319+32.8427L195.135+23.6277L199.702+23.6277L193.632+39.9337C192.173+43.8557+189.975+45.8167+187.038+45.8167C185.919+45.8167+185+45.6887+184.28+45.4327L184.28+41.7177C184.893+42.0817+185.56+42.2627+186.28+42.2627C187.466+42.2627+188.292+41.6977+188.76+40.5677L189.547+38.6957L184.979+27.3557L181.257+27.3557C180.327+27.3557+179.587+27.6747+179.034+28.3117L178.91+28.4637C178.346+29.2037+178.064+30.2087+178.064+31.4807L178.064+38.6587L173.457+38.6587L173.457+23.6277C173.457+23.6277+178.064+23.6277+178.064+23.6277ZM215.632+19.0947L215.632+23.6277L219.028+23.6277L219.028+26.9737L215.632+26.9737L215.632+33.2117C215.632+34.7837+216.257+35.5697+217.507+35.5697C217.999+35.5697+218.506+35.4267+219.027+35.1427L219.027+38.5907C218.339+38.9537+217.3+39.1357+215.912+39.1357C212.624+39.1357+210.981+37.4317+210.981+34.0227L210.981+26.9727L209.277+26.9727L209.277+26.9757L205.366+26.9757C205.058+26.9757+204.768+27.0027+204.496+27.0577C204.223+27.1117+203.983+27.1917+203.774+27.2957C203.566+27.3997+203.402+27.5337+203.284+27.6977C203.164+27.8617+203.099+28.0177+203.099+28.2277C203.099+28.5047+203.194+28.6237+203.373+28.8217C203.551+29.0207+203.784+29.1917+204.072+29.3357C204.359+29.4797+204.679+29.6087+205.032+29.7227C205.383+29.8367+205.732+29.9527+206.08+30.0727C206.704+30.2907+207.27+30.5287+207.775+30.7867C208.281+31.0447+208.715+31.3467+209.077+31.6947C209.439+32.0417+209.717+32.4487+209.91+32.9147C210.103+33.3817+210.2+33.9367+210.2+34.5817C210.2+35.4847+210.004+36.2567+209.612+36.8967C209.221+37.5367+208.7+38.0567+208.051+38.4597C207.401+38.8617+206.652+39.1537+205.805+39.3377C204.957+39.5207+204.077+39.6127+203.165+39.6127C201.489+39.6127+199.937+39.3547+198.509+38.8387L198.509+35.0287C199.282+35.4947+200.053+35.8427+200.822+36.0707C201.59+36.2987+202.317+36.4127+203.001+36.4127C203.834+36.4127+204.491+36.2987+204.971+36.0707C205.453+35.8427+205.693+35.4947+205.693+35.0287C205.693+34.7307+205.583+34.4827+205.366+34.2847C205.148+34.0857+204.867+33.9127+204.526+33.7637C204.183+33.6147+203.809+33.4807+203.402+33.3617C202.996+33.2417+202.604+33.1087+202.227+32.9597C201.623+32.7317+201.09+32.4857+200.628+32.2227C200.168+31.9597+199.781+31.6547+199.468+31.3077C199.156+30.9607+198.918+30.5577+198.754+30.1017C198.591+29.6457+198.509+29.1047+198.509+28.4797C198.509+27.6267+198.695+26.8917+199.067+26.2767C199.439+25.6617+199.934+25.1577+200.554+24.7667C201.174+24.3737+201.883+24.0867+202.681+23.9027C203.479+23.7197+204.31+23.6277+205.172+23.6277L210.981+23.6277L210.981+20.4207L215.631+19.0947L215.632+19.0947ZM238.355+15.9927L238.355+34.5447C238.355+34.8787+238.535+35.1607+238.819+35.1607C239.309+35.1607+239.541+35.1607+240.133+35.0837L240.262+35.0837L240.262+38.9037C239.644+39.0837+239.077+39.1347+238.278+39.1347C235.238+39.1347+233.82+37.7247+233.82+35.0577L233.82+15.9927C233.82+15.9927+238.355+15.9927+238.355+15.9927ZM226.685+23.1507C230.872+23.1507+233.01+25.1937+233.101+29.2817L233.104+29.5577L233.104+38.5307L228.723+38.5307L228.723+36.3747L228.664+36.3747L228.524+36.5987C227.521+38.1307+226.078+38.8957+224.194+38.8957C222.739+38.8957+221.594+38.4837+220.758+37.6577C219.922+36.8317+219.505+35.7297+219.505+34.3507C219.505+31.5207+221.132+29.8537+224.386+29.3487L224.678+29.3077L228.752+28.7647L228.748+28.5787C228.682+27.0607+227.794+26.3017+226.085+26.3017C224.416+26.3017+222.824+26.7657+221.308+27.6937L220.985+27.8997L220.985+24.4097L221.209+24.3007C221.829+24.0137+222.636+23.7567+223.63+23.5307C224.749+23.2767+225.767+23.1497+226.686+23.1497L226.685+23.1507ZM162.34+10.5047L162.34+30.5947L162.398+30.5947L166.566+24.1377L168.174+21.9437L173.668+21.9437L171.998+24.1457L166.984+30.7107L172.741+38.6587L167.19+38.6587L162.4+31.2237L162.34+31.2237L162.34+38.6587L157.71+38.6587L157.71+11.6987C157.71+11.6987+162.34+10.5047+162.34+10.5047ZM228.752+31.4197L226.026+31.7717L225.816+31.8027C224.452+32.0327+223.769+32.7017+223.769+33.8097C223.769+34.3377+223.952+34.7697+224.319+35.1067C224.685+35.4447+225.181+35.6127+225.806+35.6127C226.676+35.6127+227.384+35.3127+227.931+34.7117C228.429+34.1647+228.7+33.4867+228.745+32.6777L228.752+32.4317C228.752+32.4317+228.752+31.4197+228.752+31.4197Z" opacity="1" fill="#000000"/>
<path d="M134.151+29.2217C134.517+29.2147+134.819+29.5057+134.826+29.8717L135.057+42.4217C135.063+42.7427+134.839+43.0217+134.525+43.0847L129.469+44.0997C129.351+44.1237+129.229+44.1147+129.117+44.0747C128.772+43.9517+128.592+43.5727+128.714+43.2277L133.539+29.6627C133.632+29.4027+133.875+29.2267+134.151+29.2217ZM136.631+29.9477C136.9+29.6997+137.319+29.7177+137.567+29.9867L145.443+38.5497C145.527+38.6417+145.583+38.7557+145.607+38.8787C145.673+39.2387+145.434+39.5837+145.075+39.6497L137.384+41.0627C137.348+41.0697+137.313+41.0727+137.277+41.0737C136.911+41.0807+136.608+40.7897+136.602+40.4237L136.416+30.4477C136.413+30.2577+136.491+30.0757+136.63+29.9477L136.631+29.9477ZM132.364+28.5027C132.397+28.6307+132.392+28.7667+132.347+28.8917L128.567+39.5717C128.444+39.9157+128.066+40.0967+127.721+39.9747C127.631+39.9427+127.548+39.8917+127.48+39.8247L119.623+32.1827C119.36+31.9267+119.355+31.5077+119.61+31.2457C119.694+31.1587+119.8+31.0967+119.917+31.0657L131.555+28.0287C131.91+27.9367+132.272+28.1487+132.364+28.5027ZM138.873+26.8927L150.803+29.3507C151.144+29.4207+151.373+29.7437+151.325+30.0907L150.053+39.3367C150.003+39.6997+149.669+39.9527+149.306+39.9027C149.153+39.8817+149.011+39.8077+148.906+39.6927L138.25+27.9877C138.004+27.7177+138.023+27.2977+138.294+27.0517C138.45+26.9087+138.666+26.8497+138.874+26.8917L138.873+26.8927ZM115.74+19.0487C115.87+18.7067+116.254+18.5357+116.596+18.6657L132.896+24.8987C133.096+24.9757+133.248+25.1437+133.301+25.3507C133.394+25.7057+133.181+26.0667+132.827+26.1587L115.662+30.6187C115.59+30.6387+115.516+30.6447+115.442+30.6387C115.077+30.6087+114.805+30.2887+114.835+29.9247L115.698+19.2317C115.703+19.1687+115.718+19.1067+115.74+19.0487ZM146.776+13.5837C146.897+13.6807+146.981+13.8177+147.011+13.9707L149.477+26.2917C149.549+26.6507+149.317+26.9997+148.957+27.0717C148.871+27.0887+148.781+27.0887+148.694+27.0717L138.103+24.8967C137.744+24.8227+137.513+24.4727+137.587+24.1147C137.608+24.0117+137.653+23.9147+137.719+23.8337L145.844+13.6867C146.074+13.4007+146.49+13.3547+146.776+13.5837ZM134.869+11.5057C134.928+11.6067+134.959+11.7217+134.959+11.8387L134.959+23.0497C134.959+23.4157+134.662+23.7127+134.296+23.7127C134.215+23.7127+134.134+23.6977+134.059+23.6687L122.432+19.2127C122.091+19.0827+121.92+18.6987+122.051+18.3567C122.105+18.2167+122.206+18.0967+122.337+18.0217L133.963+11.2647C134.279+11.0807+134.685+11.1887+134.869+11.5047L134.869+11.5057ZM136.422+8.35868C136.545+8.01368+136.924+7.83368+137.268+7.95668L145.048+10.7227C145.118+10.7477+145.183+10.7837+145.241+10.8297C145.526+11.0597+145.572+11.4757+145.344+11.7617L137.564+21.4697C137.438+21.6267+137.248+21.7187+137.047+21.7187C136.681+21.7187+136.384+21.4217+136.384+21.0557L136.384+8.58068C136.384+8.50568+136.397+8.43068+136.422+8.35868Z" opacity="1" fill="#1de9b6"/>
</g>
</g>
</svg>
